<svg xmlns="http://www.w3.org/2000/svg" width="900" height="300" viewBox="0 0 900 300">
<style>
text { font-family: Arial, Helvetica, sans-serif; fill: #1f2933; }
.title { font-size: 18px; font-weight: 700; }
.subtitle { font-size: 12px; fill: #52606d; }
.axis { font-size: 11px; fill: #323f4b; }
.small { font-size: 10px; fill: #52606d; }
.note { font-size: 11px; fill: #7b341e; }
</style>
<text x="24.0" y="30.0" class="title" text-anchor="start">Fixed-Parameter Measurement-Addition Preview</text>
<text x="24.0" y="50.0" class="subtitle" text-anchor="start">Non-final diagnostic: monotonicity is checked only after full rank is reached.</text>
<text x="24.0" y="70.0" class="note" text-anchor="start">Nu=3, Ns=6, parameter dim=17</text>
<line x1="80.0" y1="230.0" x2="730.0" y2="230.0" stroke="#9aa5b1" stroke-width="1" />
<line x1="80.0" y1="85.0" x2="80.0" y2="230.0" stroke="#9aa5b1" stroke-width="1" />
<text x="24.0" y="95.0" class="small" text-anchor="start">log10 bound value</text>
<line x1="80.0" y1="230.0" x2="80.0" y2="234.0" stroke="#9aa5b1" stroke-width="1" />
<text x="80.0" y="248.0" class="axis" text-anchor="middle">9</text>
<line x1="210.0" y1="230.0" x2="210.0" y2="234.0" stroke="#9aa5b1" stroke-width="1" />
<text x="210.0" y="248.0" class="axis" text-anchor="middle">12</text>
<line x1="340.0" y1="230.0" x2="340.0" y2="234.0" stroke="#9aa5b1" stroke-width="1" />
<text x="340.0" y="248.0" class="axis" text-anchor="middle">15</text>
<line x1="383.3" y1="230.0" x2="383.3" y2="234.0" stroke="#9aa5b1" stroke-width="1" />
<text x="383.3" y="248.0" class="axis" text-anchor="middle">16</text>
<line x1="426.7" y1="230.0" x2="426.7" y2="234.0" stroke="#9aa5b1" stroke-width="1" />
<text x="426.7" y="248.0" class="axis" text-anchor="middle">17</text>
<line x1="470.0" y1="230.0" x2="470.0" y2="234.0" stroke="#9aa5b1" stroke-width="1" />
<text x="470.0" y="248.0" class="axis" text-anchor="middle">18</text>
<line x1="600.0" y1="230.0" x2="600.0" y2="234.0" stroke="#9aa5b1" stroke-width="1" />
<text x="600.0" y="248.0" class="axis" text-anchor="middle">21</text>
<line x1="730.0" y1="230.0" x2="730.0" y2="234.0" stroke="#9aa5b1" stroke-width="1" />
<text x="730.0" y="248.0" class="axis" text-anchor="middle">24</text>
<text x="405.0" y="268.0" class="axis" text-anchor="middle">measurement count</text>
<path d="M76.0,219.0 L84.0,227.0 M84.0,219.0 L76.0,227.0" stroke="#b91c1c" stroke-width="1.8" />
<path d="M206.0,219.0 L214.0,227.0 M214.0,219.0 L206.0,227.0" stroke="#b91c1c" stroke-width="1.8" />
<path d="M336.0,219.0 L344.0,227.0 M344.0,219.0 L336.0,227.0" stroke="#b91c1c" stroke-width="1.8" />
<path d="M379.3,219.0 L387.3,227.0 M387.3,219.0 L379.3,227.0" stroke="#b91c1c" stroke-width="1.8" />
<circle cx="426.7" cy="85.0" r="4.0" fill="#1d4ed8" stroke="#1f2933" stroke-width="0.6" />
<line x1="426.7" y1="85.0" x2="470.0" y2="96.0" stroke="#1d4ed8" stroke-width="1" />
<circle cx="470.0" cy="96.0" r="4.0" fill="#1d4ed8" stroke="#1f2933" stroke-width="0.6" />
<line x1="470.0" y1="96.0" x2="600.0" y2="118.0" stroke="#1d4ed8" stroke-width="1" />
<circle cx="600.0" cy="118.0" r="4.0" fill="#1d4ed8" stroke="#1f2933" stroke-width="0.6" />
<line x1="600.0" y1="118.0" x2="730.0" y2="120.8" stroke="#1d4ed8" stroke-width="1" />
<circle cx="730.0" cy="120.8" r="4.0" fill="#1d4ed8" stroke="#1f2933" stroke-width="0.6" />
<circle cx="754.0" cy="106.0" r="4.0" fill="#1d4ed8" stroke="#1f2933" stroke-width="0.6" />
<text x="766.0" y="110.0" class="axis" text-anchor="start">UE PEB [km]</text>
<path d="M76.0,219.0 L84.0,227.0 M84.0,219.0 L76.0,227.0" stroke="#b91c1c" stroke-width="1.8" />
<path d="M206.0,219.0 L214.0,227.0 M214.0,219.0 L206.0,227.0" stroke="#b91c1c" stroke-width="1.8" />
<path d="M336.0,219.0 L344.0,227.0 M344.0,219.0 L336.0,227.0" stroke="#b91c1c" stroke-width="1.8" />
<path d="M379.3,219.0 L387.3,227.0 M387.3,219.0 L379.3,227.0" stroke="#b91c1c" stroke-width="1.8" />
<circle cx="426.7" cy="196.1" r="4.0" fill="#047857" stroke="#1f2933" stroke-width="0.6" />
<line x1="426.7" y1="196.1" x2="470.0" y2="206.9" stroke="#047857" stroke-width="1" />
<circle cx="470.0" cy="206.9" r="4.0" fill="#047857" stroke="#1f2933" stroke-width="0.6" />
<line x1="470.0" y1="206.9" x2="600.0" y2="227.4" stroke="#047857" stroke-width="1" />
<circle cx="600.0" cy="227.4" r="4.0" fill="#047857" stroke="#1f2933" stroke-width="0.6" />
<line x1="600.0" y1="227.4" x2="730.0" y2="230.0" stroke="#047857" stroke-width="1" />
<circle cx="730.0" cy="230.0" r="4.0" fill="#047857" stroke="#1f2933" stroke-width="0.6" />
<circle cx="754.0" cy="130.0" r="4.0" fill="#047857" stroke="#1f2933" stroke-width="0.6" />
<text x="766.0" y="134.0" class="axis" text-anchor="start">clock bound [s]</text>
</svg>
