<svg xmlns="http://www.w3.org/2000/svg" width="900" height="665" viewBox="0 0 900 665">
<style>
text { font-family: Arial, Helvetica, sans-serif; fill: #1f2933; }
.title { font-size: 18px; font-weight: 700; }
.subtitle { font-size: 12px; fill: #52606d; }
.axis { font-size: 11px; fill: #323f4b; }
.small { font-size: 10px; fill: #52606d; }
.note { font-size: 11px; fill: #7b341e; }
</style>
<text x="24.0" y="30.0" class="title" text-anchor="start">V24 CRLB Rank-Feasibility Preview</text>
<text x="24.0" y="50.0" class="subtitle" text-anchor="start">Non-final diagnostic: green cells are full-rank; red cells are unavailable CRLB cases.</text>
<text x="24.0" y="70.0" class="note" text-anchor="start">Cell text is FIM rank / parameter dimension.</text>
<text x="24.0" y="95.0" class="title" text-anchor="start">Link pattern: dl_only</text>
<text x="136.0" y="119.0" class="axis" text-anchor="middle">Ns=2</text>
<text x="218.0" y="119.0" class="axis" text-anchor="middle">Ns=3</text>
<text x="300.0" y="119.0" class="axis" text-anchor="middle">Ns=4</text>
<text x="382.0" y="119.0" class="axis" text-anchor="middle">Ns=5</text>
<text x="464.0" y="119.0" class="axis" text-anchor="middle">Ns=6</text>
<text x="546.0" y="119.0" class="axis" text-anchor="middle">Ns=7</text>
<text x="628.0" y="119.0" class="axis" text-anchor="middle">Ns=8</text>
<text x="24.0" y="151.0" class="axis" text-anchor="start">Nu=2</text>
<rect x="95.0" y="130.0" width="76.0" height="26.0" fill="#fee2e2" stroke="#b91c1c" />
<text x="133.0" y="148.0" class="axis" text-anchor="middle">4/9</text>
<rect x="177.0" y="130.0" width="76.0" height="26.0" fill="#fee2e2" stroke="#b91c1c" />
<text x="215.0" y="148.0" class="axis" text-anchor="middle">6/10</text>
<rect x="259.0" y="130.0" width="76.0" height="26.0" fill="#fee2e2" stroke="#b91c1c" />
<text x="297.0" y="148.0" class="axis" text-anchor="middle">8/11</text>
<rect x="341.0" y="130.0" width="76.0" height="26.0" fill="#fee2e2" stroke="#b91c1c" />
<text x="379.0" y="148.0" class="axis" text-anchor="middle">10/12</text>
<rect x="423.0" y="130.0" width="76.0" height="26.0" fill="#fee2e2" stroke="#b91c1c" />
<text x="461.0" y="148.0" class="axis" text-anchor="middle">12/13</text>
<rect x="505.0" y="130.0" width="76.0" height="26.0" fill="#d8f3dc" stroke="#2f855a" />
<text x="543.0" y="148.0" class="axis" text-anchor="middle">14/14</text>
<rect x="587.0" y="130.0" width="76.0" height="26.0" fill="#d8f3dc" stroke="#2f855a" />
<text x="625.0" y="148.0" class="axis" text-anchor="middle">15/15</text>
<text x="24.0" y="183.0" class="axis" text-anchor="start">Nu=3</text>
<rect x="95.0" y="162.0" width="76.0" height="26.0" fill="#fee2e2" stroke="#b91c1c" />
<text x="133.0" y="180.0" class="axis" text-anchor="middle">6/13</text>
<rect x="177.0" y="162.0" width="76.0" height="26.0" fill="#fee2e2" stroke="#b91c1c" />
<text x="215.0" y="180.0" class="axis" text-anchor="middle">9/14</text>
<rect x="259.0" y="162.0" width="76.0" height="26.0" fill="#fee2e2" stroke="#b91c1c" />
<text x="297.0" y="180.0" class="axis" text-anchor="middle">12/15</text>
<rect x="341.0" y="162.0" width="76.0" height="26.0" fill="#fee2e2" stroke="#b91c1c" />
<text x="379.0" y="180.0" class="axis" text-anchor="middle">15/16</text>
<rect x="423.0" y="162.0" width="76.0" height="26.0" fill="#d8f3dc" stroke="#2f855a" />
<text x="461.0" y="180.0" class="axis" text-anchor="middle">17/17</text>
<rect x="505.0" y="162.0" width="76.0" height="26.0" fill="#d8f3dc" stroke="#2f855a" />
<text x="543.0" y="180.0" class="axis" text-anchor="middle">18/18</text>
<rect x="587.0" y="162.0" width="76.0" height="26.0" fill="#d8f3dc" stroke="#2f855a" />
<text x="625.0" y="180.0" class="axis" text-anchor="middle">19/19</text>
<text x="24.0" y="215.0" class="axis" text-anchor="start">Nu=4</text>
<rect x="95.0" y="194.0" width="76.0" height="26.0" fill="#fee2e2" stroke="#b91c1c" />
<text x="133.0" y="212.0" class="axis" text-anchor="middle">8/17</text>
<rect x="177.0" y="194.0" width="76.0" height="26.0" fill="#fee2e2" stroke="#b91c1c" />
<text x="215.0" y="212.0" class="axis" text-anchor="middle">12/18</text>
<rect x="259.0" y="194.0" width="76.0" height="26.0" fill="#fee2e2" stroke="#b91c1c" />
<text x="297.0" y="212.0" class="axis" text-anchor="middle">16/19</text>
<rect x="341.0" y="194.0" width="76.0" height="26.0" fill="#d8f3dc" stroke="#2f855a" />
<text x="379.0" y="212.0" class="axis" text-anchor="middle">20/20</text>
<rect x="423.0" y="194.0" width="76.0" height="26.0" fill="#d8f3dc" stroke="#2f855a" />
<text x="461.0" y="212.0" class="axis" text-anchor="middle">21/21</text>
<rect x="505.0" y="194.0" width="76.0" height="26.0" fill="#d8f3dc" stroke="#2f855a" />
<text x="543.0" y="212.0" class="axis" text-anchor="middle">22/22</text>
<rect x="587.0" y="194.0" width="76.0" height="26.0" fill="#d8f3dc" stroke="#2f855a" />
<text x="625.0" y="212.0" class="axis" text-anchor="middle">23/23</text>
<text x="24.0" y="285.0" class="title" text-anchor="start">Link pattern: all_dl_minimal_sl</text>
<text x="136.0" y="309.0" class="axis" text-anchor="middle">Ns=2</text>
<text x="218.0" y="309.0" class="axis" text-anchor="middle">Ns=3</text>
<text x="300.0" y="309.0" class="axis" text-anchor="middle">Ns=4</text>
<text x="382.0" y="309.0" class="axis" text-anchor="middle">Ns=5</text>
<text x="464.0" y="309.0" class="axis" text-anchor="middle">Ns=6</text>
<text x="546.0" y="309.0" class="axis" text-anchor="middle">Ns=7</text>
<text x="628.0" y="309.0" class="axis" text-anchor="middle">Ns=8</text>
<text x="24.0" y="341.0" class="axis" text-anchor="start">Nu=2</text>
<rect x="95.0" y="320.0" width="76.0" height="26.0" fill="#fee2e2" stroke="#b91c1c" />
<text x="133.0" y="338.0" class="axis" text-anchor="middle">5/9</text>
<rect x="177.0" y="320.0" width="76.0" height="26.0" fill="#fee2e2" stroke="#b91c1c" />
<text x="215.0" y="338.0" class="axis" text-anchor="middle">7/10</text>
<rect x="259.0" y="320.0" width="76.0" height="26.0" fill="#fee2e2" stroke="#b91c1c" />
<text x="297.0" y="338.0" class="axis" text-anchor="middle">9/11</text>
<rect x="341.0" y="320.0" width="76.0" height="26.0" fill="#fee2e2" stroke="#b91c1c" />
<text x="379.0" y="338.0" class="axis" text-anchor="middle">11/12</text>
<rect x="423.0" y="320.0" width="76.0" height="26.0" fill="#d8f3dc" stroke="#2f855a" />
<text x="461.0" y="338.0" class="axis" text-anchor="middle">13/13</text>
<rect x="505.0" y="320.0" width="76.0" height="26.0" fill="#d8f3dc" stroke="#2f855a" />
<text x="543.0" y="338.0" class="axis" text-anchor="middle">14/14</text>
<rect x="587.0" y="320.0" width="76.0" height="26.0" fill="#d8f3dc" stroke="#2f855a" />
<text x="625.0" y="338.0" class="axis" text-anchor="middle">15/15</text>
<text x="24.0" y="373.0" class="axis" text-anchor="start">Nu=3</text>
<rect x="95.0" y="352.0" width="76.0" height="26.0" fill="#fee2e2" stroke="#b91c1c" />
<text x="133.0" y="370.0" class="axis" text-anchor="middle">8/13</text>
<rect x="177.0" y="352.0" width="76.0" height="26.0" fill="#fee2e2" stroke="#b91c1c" />
<text x="215.0" y="370.0" class="axis" text-anchor="middle">11/14</text>
<rect x="259.0" y="352.0" width="76.0" height="26.0" fill="#fee2e2" stroke="#b91c1c" />
<text x="297.0" y="370.0" class="axis" text-anchor="middle">14/15</text>
<rect x="341.0" y="352.0" width="76.0" height="26.0" fill="#d8f3dc" stroke="#2f855a" />
<text x="379.0" y="370.0" class="axis" text-anchor="middle">16/16</text>
<rect x="423.0" y="352.0" width="76.0" height="26.0" fill="#d8f3dc" stroke="#2f855a" />
<text x="461.0" y="370.0" class="axis" text-anchor="middle">17/17</text>
<rect x="505.0" y="352.0" width="76.0" height="26.0" fill="#d8f3dc" stroke="#2f855a" />
<text x="543.0" y="370.0" class="axis" text-anchor="middle">18/18</text>
<rect x="587.0" y="352.0" width="76.0" height="26.0" fill="#d8f3dc" stroke="#2f855a" />
<text x="625.0" y="370.0" class="axis" text-anchor="middle">19/19</text>
<text x="24.0" y="405.0" class="axis" text-anchor="start">Nu=4</text>
<rect x="95.0" y="384.0" width="76.0" height="26.0" fill="#fee2e2" stroke="#b91c1c" />
<text x="133.0" y="402.0" class="axis" text-anchor="middle">11/17</text>
<rect x="177.0" y="384.0" width="76.0" height="26.0" fill="#fee2e2" stroke="#b91c1c" />
<text x="215.0" y="402.0" class="axis" text-anchor="middle">15/18</text>
<rect x="259.0" y="384.0" width="76.0" height="26.0" fill="#d8f3dc" stroke="#2f855a" />
<text x="297.0" y="402.0" class="axis" text-anchor="middle">19/19</text>
<rect x="341.0" y="384.0" width="76.0" height="26.0" fill="#d8f3dc" stroke="#2f855a" />
<text x="379.0" y="402.0" class="axis" text-anchor="middle">20/20</text>
<rect x="423.0" y="384.0" width="76.0" height="26.0" fill="#d8f3dc" stroke="#2f855a" />
<text x="461.0" y="402.0" class="axis" text-anchor="middle">21/21</text>
<rect x="505.0" y="384.0" width="76.0" height="26.0" fill="#d8f3dc" stroke="#2f855a" />
<text x="543.0" y="402.0" class="axis" text-anchor="middle">22/22</text>
<rect x="587.0" y="384.0" width="76.0" height="26.0" fill="#d8f3dc" stroke="#2f855a" />
<text x="625.0" y="402.0" class="axis" text-anchor="middle">23/23</text>
<text x="24.0" y="475.0" class="title" text-anchor="start">Link pattern: all_dl_all_directed_sl</text>
<text x="136.0" y="499.0" class="axis" text-anchor="middle">Ns=2</text>
<text x="218.0" y="499.0" class="axis" text-anchor="middle">Ns=3</text>
<text x="300.0" y="499.0" class="axis" text-anchor="middle">Ns=4</text>
<text x="382.0" y="499.0" class="axis" text-anchor="middle">Ns=5</text>
<text x="464.0" y="499.0" class="axis" text-anchor="middle">Ns=6</text>
<text x="546.0" y="499.0" class="axis" text-anchor="middle">Ns=7</text>
<text x="628.0" y="499.0" class="axis" text-anchor="middle">Ns=8</text>
<text x="24.0" y="531.0" class="axis" text-anchor="start">Nu=2</text>
<rect x="95.0" y="510.0" width="76.0" height="26.0" fill="#fee2e2" stroke="#b91c1c" />
<text x="133.0" y="528.0" class="axis" text-anchor="middle">6/9</text>
<rect x="177.0" y="510.0" width="76.0" height="26.0" fill="#fee2e2" stroke="#b91c1c" />
<text x="215.0" y="528.0" class="axis" text-anchor="middle">8/10</text>
<rect x="259.0" y="510.0" width="76.0" height="26.0" fill="#fee2e2" stroke="#b91c1c" />
<text x="297.0" y="528.0" class="axis" text-anchor="middle">10/11</text>
<rect x="341.0" y="510.0" width="76.0" height="26.0" fill="#d8f3dc" stroke="#2f855a" />
<text x="379.0" y="528.0" class="axis" text-anchor="middle">12/12</text>
<rect x="423.0" y="510.0" width="76.0" height="26.0" fill="#d8f3dc" stroke="#2f855a" />
<text x="461.0" y="528.0" class="axis" text-anchor="middle">13/13</text>
<rect x="505.0" y="510.0" width="76.0" height="26.0" fill="#d8f3dc" stroke="#2f855a" />
<text x="543.0" y="528.0" class="axis" text-anchor="middle">14/14</text>
<rect x="587.0" y="510.0" width="76.0" height="26.0" fill="#d8f3dc" stroke="#2f855a" />
<text x="625.0" y="528.0" class="axis" text-anchor="middle">15/15</text>
<text x="24.0" y="563.0" class="axis" text-anchor="start">Nu=3</text>
<rect x="95.0" y="542.0" width="76.0" height="26.0" fill="#fee2e2" stroke="#b91c1c" />
<text x="133.0" y="560.0" class="axis" text-anchor="middle">11/13</text>
<rect x="177.0" y="542.0" width="76.0" height="26.0" fill="#d8f3dc" stroke="#2f855a" />
<text x="215.0" y="560.0" class="axis" text-anchor="middle">14/14</text>
<rect x="259.0" y="542.0" width="76.0" height="26.0" fill="#d8f3dc" stroke="#2f855a" />
<text x="297.0" y="560.0" class="axis" text-anchor="middle">15/15</text>
<rect x="341.0" y="542.0" width="76.0" height="26.0" fill="#d8f3dc" stroke="#2f855a" />
<text x="379.0" y="560.0" class="axis" text-anchor="middle">16/16</text>
<rect x="423.0" y="542.0" width="76.0" height="26.0" fill="#d8f3dc" stroke="#2f855a" />
<text x="461.0" y="560.0" class="axis" text-anchor="middle">17/17</text>
<rect x="505.0" y="542.0" width="76.0" height="26.0" fill="#d8f3dc" stroke="#2f855a" />
<text x="543.0" y="560.0" class="axis" text-anchor="middle">18/18</text>
<rect x="587.0" y="542.0" width="76.0" height="26.0" fill="#d8f3dc" stroke="#2f855a" />
<text x="625.0" y="560.0" class="axis" text-anchor="middle">19/19</text>
<text x="24.0" y="595.0" class="axis" text-anchor="start">Nu=4</text>
<rect x="95.0" y="574.0" width="76.0" height="26.0" fill="#fee2e2" stroke="#b91c1c" />
<text x="133.0" y="592.0" class="axis" text-anchor="middle">16/17</text>
<rect x="177.0" y="574.0" width="76.0" height="26.0" fill="#d8f3dc" stroke="#2f855a" />
<text x="215.0" y="592.0" class="axis" text-anchor="middle">18/18</text>
<rect x="259.0" y="574.0" width="76.0" height="26.0" fill="#d8f3dc" stroke="#2f855a" />
<text x="297.0" y="592.0" class="axis" text-anchor="middle">19/19</text>
<rect x="341.0" y="574.0" width="76.0" height="26.0" fill="#d8f3dc" stroke="#2f855a" />
<text x="379.0" y="592.0" class="axis" text-anchor="middle">20/20</text>
<rect x="423.0" y="574.0" width="76.0" height="26.0" fill="#d8f3dc" stroke="#2f855a" />
<text x="461.0" y="592.0" class="axis" text-anchor="middle">21/21</text>
<rect x="505.0" y="574.0" width="76.0" height="26.0" fill="#d8f3dc" stroke="#2f855a" />
<text x="543.0" y="592.0" class="axis" text-anchor="middle">22/22</text>
<rect x="587.0" y="574.0" width="76.0" height="26.0" fill="#d8f3dc" stroke="#2f855a" />
<text x="625.0" y="592.0" class="axis" text-anchor="middle">23/23</text>
</svg>
